<?xml version="1.0" encoding="UTF-8" ?>
<svg version="1.1" width="40" height="40" xmlns="http://www.w3.org/2000/svg" shape-rendering="crispEdges">
<rect x="16" y="0" width="8" height="6" fill="#818181" />
<rect x="13" y="1" width="3" height="6" fill="#818181" />
<rect x="24" y="1" width="3" height="7" fill="#818181" />
<rect x="11" y="2" width="2" height="8" fill="#818181" />
<rect x="27" y="2" width="2" height="21" fill="#818181" />
<rect x="9" y="3" width="2" height="18" fill="#818181" />
<rect x="29" y="3" width="2" height="27" fill="#818181" />
<rect x="8" y="4" width="1" height="26" fill="#818181" />
<rect x="31" y="4" width="1" height="25" fill="#818181" />
<rect x="7" y="5" width="1" height="24" fill="#818181" />
<rect x="32" y="5" width="1" height="20" fill="#818181" />
<rect x="6" y="6" width="1" height="22" fill="#818181" />
<rect x="23" y="6" width="1" height="1" fill="#818181" />
<rect x="33" y="6" width="1" height="19" fill="#818181" />
<rect x="5" y="7" width="1" height="20" fill="#818181" />
<rect x="13" y="7" width="2" height="1" fill="#818181" />
<rect x="34" y="7" width="1" height="18" fill="#818181" />
<rect x="4" y="8" width="1" height="18" fill="#818181" />
<rect x="13" y="8" width="1" height="1" fill="#818181" />
<rect x="25" y="8" width="2" height="1" fill="#818181" />
<rect x="35" y="8" width="1" height="17" fill="#818181" />
<rect x="3" y="9" width="1" height="22" fill="#818181" />
<rect x="26" y="9" width="1" height="1" fill="#818181" />
<rect x="36" y="9" width="1" height="22" fill="#818181" />
<rect x="11" y="10" width="1" height="9" fill="#818181" />
<rect x="18" y="10" width="3" height="4" fill="#818181" />
<rect x="2" y="11" width="1" height="18" fill="#818181" />
<rect x="17" y="11" width="1" height="3" fill="#818181" />
<rect x="37" y="11" width="1" height="18" fill="#818181" />
<rect x="16" y="12" width="1" height="2" fill="#818181" />
<rect x="1" y="13" width="1" height="14" fill="#818181" />
<rect x="12" y="13" width="4" height="1" fill="#818181" />
<rect x="38" y="13" width="1" height="14" fill="#818181" />
<rect x="12" y="14" width="3" height="1" fill="#818181" />
<rect x="12" y="15" width="2" height="1" fill="#818181" />
<rect x="0" y="16" width="1" height="8" fill="#818181" />
<rect x="12" y="16" width="1" height="1" fill="#818181" />
<rect x="39" y="16" width="1" height="8" fill="#818181" />
<rect x="18" y="18" width="3" height="6" fill="#818181" />
<rect x="16" y="19" width="2" height="5" fill="#818181" />
<rect x="15" y="20" width="1" height="3" fill="#818181" />
<rect x="9" y="21" width="1" height="9" fill="#818181" />
<rect x="28" y="23" width="1" height="1" fill="#818181" />
<rect x="10" y="24" width="1" height="7" fill="#818181" />
<rect x="18" y="24" width="2" height="1" fill="#818181" />
<rect x="11" y="25" width="1" height="6" fill="#818181" />
<rect x="22" y="25" width="1" height="8" fill="#818181" />
<rect x="28" y="25" width="1" height="6" fill="#818181" />
<rect x="12" y="26" width="1" height="6" fill="#818181" />
<rect x="21" y="26" width="1" height="7" fill="#818181" />
<rect x="23" y="26" width="1" height="7" fill="#818181" />
<rect x="27" y="26" width="1" height="5" fill="#818181" />
<rect x="32" y="26" width="2" height="1" fill="#818181" />
<rect x="4" y="27" width="1" height="5" fill="#818181" />
<rect x="13" y="27" width="1" height="5" fill="#818181" />
<rect x="19" y="27" width="2" height="6" fill="#818181" />
<rect x="24" y="27" width="1" height="5" fill="#818181" />
<rect x="26" y="27" width="1" height="5" fill="#818181" />
<rect x="32" y="27" width="1" height="1" fill="#818181" />
<rect x="34" y="27" width="1" height="6" fill="#818181" />
<rect x="5" y="28" width="1" height="5" fill="#818181" />
<rect x="14" y="28" width="5" height="4" fill="#818181" />
<rect x="25" y="28" width="1" height="4" fill="#818181" />
<rect x="33" y="28" width="1" height="6" fill="#818181" />
<rect x="6" y="29" width="1" height="5" fill="#818181" />
<rect x="32" y="29" width="1" height="6" fill="#818181" />
<rect x="35" y="29" width="1" height="3" fill="#818181" />
<rect x="7" y="30" width="1" height="5" fill="#818181" />
<rect x="31" y="30" width="1" height="6" fill="#818181" />
<rect x="8" y="31" width="2" height="5" fill="#818181" />
<rect x="29" y="31" width="2" height="6" fill="#818181" />
<rect x="10" y="32" width="2" height="5" fill="#818181" />
<rect x="15" y="32" width="4" height="1" fill="#818181" />
<rect x="27" y="32" width="2" height="6" fill="#818181" />
<rect x="12" y="33" width="3" height="5" fill="#818181" />
<rect x="24" y="33" width="3" height="6" fill="#818181" />
<rect x="15" y="34" width="9" height="5" fill="#818181" />
<rect x="9" y="36" width="1" height="1" fill="#818181" />
<rect x="11" y="37" width="1" height="1" fill="#818181" />
<rect x="13" y="38" width="2" height="1" fill="#818181" />
<rect x="16" y="39" width="8" height="1" fill="#818181" />
</svg>